<svg width="100" height="100" viewBox="0 0 100 100" fill="none" xmlns="http://www.w3.org/2000/svg">
<g clip-path="url(#clip0)">
<path d="M63.6364 9.09091C63.6364 7.2929 64.1695 5.53527 65.1685 4.04027C66.1674 2.54528 67.5872 1.38008 69.2483 0.692008C70.9095 0.00393892 72.7374 -0.176091 74.5008 0.174683C76.2643 0.525458 77.8841 1.39128 79.1555 2.66267C80.4269 3.93406 81.2927 5.5539 81.6435 7.31737C81.9943 9.08083 81.8142 10.9087 81.1262 12.5699C80.4381 14.231 79.2729 15.6508 77.7779 16.6497C76.2829 17.6487 74.5253 18.1818 72.7273 18.1818C70.3162 18.1818 68.0039 17.224 66.299 15.5192C64.5942 13.8143 63.6364 11.502 63.6364 9.09091ZM17.9364 64.5455C20.5231 63.5657 23.3466 63.3958 26.0322 64.0583C28.7178 64.7207 31.1384 66.1842 32.9727 68.2545C33.772 69.1575 34.8972 69.7059 36.1009 69.7793C37.3045 69.8526 38.488 69.4447 39.3909 68.6455C40.2938 67.8462 40.8423 66.721 40.9156 65.5173C40.9889 64.3137 40.5811 63.1302 39.7818 62.2273C37.5031 59.6561 34.6751 57.6306 31.5073 56.3008C28.3394 54.9711 24.913 54.3711 21.4818 54.5455C17.7483 54.7555 14.1242 55.8835 10.931 57.8295C7.73777 59.7755 5.07406 62.4793 3.17604 65.7013C1.27802 68.9233 0.204341 72.5638 0.050202 76.3C-0.103937 80.0363 0.666227 83.7529 2.29241 87.1203C3.91858 90.4876 6.35053 93.4017 9.3726 95.6041C12.3947 97.8065 15.9135 99.2292 19.6171 99.746C23.3206 100.263 27.0945 99.8578 30.6041 98.5669C34.1136 97.276 37.2505 95.139 39.7364 92.3455C40.4106 91.4296 40.717 90.2943 40.5951 89.1636C40.4732 88.0329 39.9319 86.989 39.078 86.2379C38.2242 85.4867 37.1197 85.0829 35.9827 85.1062C34.8457 85.1295 33.7588 85.5782 32.9364 86.3636C31.5622 87.9104 29.8541 89.1243 27.9414 89.9132C26.0287 90.7021 23.9615 91.0454 21.8964 90.9172C19.8314 90.7889 17.8226 90.1924 16.0222 89.1728C14.2218 88.1533 12.6771 86.7374 11.5049 85.0324C10.3327 83.3275 9.56392 81.3781 9.25667 79.332C8.94942 77.2859 9.1118 75.1967 9.73151 73.2227C10.3512 71.2487 11.412 69.4415 12.8335 67.9381C14.2551 66.4348 16.0001 65.2746 17.9364 64.5455ZM64.5454 43.6364C64.9688 44.2009 65.5179 44.6591 66.149 44.9747C66.7802 45.2903 67.4762 45.4545 68.1818 45.4545H86.3636C86.9605 45.4629 87.5533 45.3536 88.1079 45.1329C88.6626 44.9122 89.1684 44.5844 89.5964 44.1682C90.0244 43.752 90.3662 43.2556 90.6024 42.7074C90.8385 42.1591 90.9644 41.5696 90.9727 40.9727C90.9811 40.3758 90.8718 39.7831 90.6511 39.2284C90.4304 38.6737 90.1026 38.168 89.6864 37.74C89.2702 37.312 88.7738 36.9701 88.2255 36.734C87.6772 36.4978 87.0878 36.372 86.4909 36.3636H70.4545L58.1818 20C57.7715 19.4523 57.2428 19.0044 56.6352 18.6896C56.0276 18.3748 55.3568 18.2012 54.6727 18.1818C54.0539 18.168 53.4386 18.2793 52.8637 18.5089C52.2889 18.7385 51.7663 19.0818 51.3273 19.5182L33.1455 37.7C32.2933 38.5524 31.8146 39.7084 31.8146 40.9136C31.8146 42.1189 32.2933 43.2749 33.1455 44.1273L45.4545 56.4273V77.2727C45.4365 78.4783 45.898 79.6416 46.7377 80.5068C47.5773 81.372 48.7263 81.8683 49.9318 81.8864C51.1373 81.9044 52.3007 81.4429 53.1659 80.6032C54.0311 79.7636 54.5274 78.6146 54.5455 77.4091V54.5455C54.5451 53.3458 54.0752 52.1939 53.2364 51.3364L46.3636 44.5L56.9545 33.5909L64.5454 43.6364ZM85.3364 56.0182C83.1692 55.1883 80.8887 54.6918 78.5727 54.5455C75.1455 54.3658 71.7216 54.957 68.5531 56.2754C65.3845 57.5938 62.5519 59.6059 60.2636 62.1636C59.4632 63.0678 59.0546 64.2529 59.128 65.4582C59.2013 66.6636 59.7504 67.7904 60.6545 68.5909C61.5587 69.3914 62.7438 69.7999 63.9491 69.7266C65.1545 69.6533 66.2813 69.1041 67.0818 68.2C68.9184 66.1319 71.3403 64.6711 74.0264 64.0116C76.7125 63.352 79.5356 63.5249 82.1212 64.5072C84.7067 65.4895 86.9324 67.2348 88.5029 69.5115C90.0735 71.7882 90.9145 74.4887 90.9145 77.2545C90.9145 80.0204 90.0735 82.7209 88.5029 84.9976C86.9324 87.2743 84.7067 89.0196 82.1212 90.0019C79.5356 90.9842 76.7125 91.1571 74.0264 90.4975C71.3403 89.838 68.9184 88.3772 67.0818 86.3091C66.326 85.3688 65.2275 84.7672 64.0281 84.6368C62.8287 84.5064 61.6267 84.8578 60.6864 85.6136C59.746 86.3695 59.1445 87.4679 59.0141 88.6673C58.8837 89.8667 59.235 91.0688 59.9909 92.0091C60.0892 92.1255 60.1923 92.2377 60.3 92.3455C62.5906 94.9207 65.4369 96.9413 68.6236 98.2543C71.8103 99.5673 75.2538 100.138 78.6937 99.9242C82.1336 99.71 85.4798 98.7163 88.479 97.0183C91.4782 95.3202 94.052 92.9623 96.0055 90.1228C97.9591 87.2833 99.2412 84.0368 99.755 80.6287C100.269 77.2207 100.001 73.7404 98.9711 70.4512C97.9415 67.162 96.1772 64.1501 93.8119 61.6433C91.4466 59.1365 88.5421 57.2005 85.3182 55.9818L85.3364 56.0182Z" fill="#1E130C"/>
</g>
<defs>
<clipPath id="clip0">
<rect width="100" height="100" fill="white"/>
</clipPath>
</defs>
</svg>
