<svg width="100" height="100" viewBox="0 0 100 100" fill="none" xmlns="http://www.w3.org/2000/svg">
<path d="M79.5 27.5C76.5 22.5 71 20 65 20H35C29 20 23.5 22.5 20.5 27.5C8.99998 45 6.49998 71.5 14.5 77C22.5 82.5 40.5 58.5 50 58.5C59.5 58.5 77 82.5 85.5 77C93.5 71.5 91 45 79.5 27.5ZM40 45H35V50H30V45H25V40H30V35H35V40H40V45ZM67 47.5C67 50 65 52 62.5 52C60 52 58 50 58 47.5C58 45 60 43 62.5 43C65 43 67 45 67 47.5ZM76.5 37.5C76.5 40 74.5 42 72 42C69.5 42 67.5 40 67.5 37.5C67.5 35 69.5 33 72 33C74.5 33 76.5 35 76.5 37.5Z" fill="#1E130C"/>
</svg>
