<svg width="21" height="17" viewBox="0 0 21 17" fill="none" xmlns="http://www.w3.org/2000/svg">
<path d="M18.5753 0.986383C18.0347 0.978527 16.7787 1.15881 14.6818 2.53736C13.539 2.2568 12.323 2.11835 11.1049 2.11835C9.76469 2.11835 8.41031 2.28552 7.14726 2.62585C4.13669 0.608463 2.80785 1.02189 2.80785 1.02189C1.94034 3.15281 2.47642 4.73049 2.63936 5.12232C1.61972 6.20324 0.997253 7.58355 0.997253 9.27526C0.997253 10.5524 1.14524 11.6979 1.50679 12.6937C1.52684 12.7706 1.52034 12.7534 1.55412 12.8192C1.63378 13.0254 1.72234 13.2254 1.82188 13.4187C1.85599 13.4882 1.88704 13.5397 1.88704 13.5397C2.90339 15.4006 4.90695 16.6027 8.47175 16.9802L13.8633 16.9862C17.665 16.6158 19.4893 15.4102 20.3299 13.5367L20.3834 13.4147C20.463 13.2254 20.5325 13.0285 20.7224 12.3657C20.9123 11.7029 20.9973 10.555 20.9973 9.27475C20.9973 7.43867 20.2952 5.96952 19.1551 4.85181C19.3544 4.22013 19.6205 2.81728 18.8894 1.02137C18.8894 1.02137 18.7869 0.989455 18.5753 0.986367L18.5753 0.986383ZM14.3265 7.72427C15.2044 7.7224 15.9563 7.87044 16.5209 8.45225V8.45275C17.2273 9.1814 17.6408 10.0611 17.6408 11.0092C17.6408 15.4357 14.7424 15.5561 11.1675 15.5561C7.592 15.5561 4.69429 14.9427 4.69429 11.0092C4.69429 10.0674 5.10166 9.19294 5.79939 8.46724C6.96325 7.2578 8.93281 7.89825 11.1675 7.89825C12.3147 7.89808 13.392 7.72625 14.3265 7.72425L14.3265 7.72427ZM7.66747 9.02776C6.92362 9.02776 6.32058 10.0156 6.32058 11.2347C6.32058 12.454 6.92358 13.4422 7.66747 13.4422C8.41132 13.4422 9.01435 12.454 9.01435 11.2347C9.01435 10.0158 8.41135 9.02864 7.66747 9.02776ZM14.894 9.02776C14.1502 9.02776 13.5472 10.0156 13.5472 11.2347C13.5472 12.454 14.1502 13.4422 14.894 13.4422C15.6379 13.4422 16.2409 12.454 16.2409 11.2347C16.2409 10.0158 15.6379 9.02864 14.894 9.02776Z" fill="#1E130C"/>
</svg>
